<svg xmlns="http://www.w3.org/2000/svg" viewBox="0 0 4000 4200" width="4000" height="4200">
<defs><style>
@import url('https://fonts.googleapis.com/css2?family=Inter:wght@400;500;600;700;800;900&amp;display=swap');
.t{font-family:'Inter',system-ui,sans-serif}
.m{font-family:'SF Mono','Consolas',monospace}
</style></defs>
<rect width="4000" height="4200" fill="#fafbfc"/>
<text x="2000" y="60" text-anchor="middle" class="t" font-size="52" font-weight="800" fill="#0f172a" letter-spacing="-1">Tymon Global AI Tech Stack</text>
<text x="2000" y="105" text-anchor="middle" class="t" font-size="22" fill="#64748b">3 Tracks · 4 Phases · Complete AI Career Roadmap</text>
<circle cx="2000" cy="2050" r="1735" fill="#f1f5f9"/>
<circle cx="2000" cy="2050" r="138" fill="none" stroke="#0f172a" stroke-width="10" opacity="0.9"/>
<path id="pb0" d="M1862,2050 A138,138,0,0,1,2138,2050" fill="none"/>
<text class="m" font-size="8" font-weight="700" fill="#e2e8f0" letter-spacing="2"><textPath href="#pb0" startOffset="50%" text-anchor="middle">PHASE 1  —  FOUNDATIONS  —  0–3 MONTHS</textPath></text>
<path id="pt0" d="M1862,2050 A138,138,0,0,0,2138,2050" fill="none"/>
<text class="m" font-size="8" font-weight="700" fill="#e2e8f0" letter-spacing="2"><textPath href="#pt0" startOffset="50%" text-anchor="middle">PHASE 1  —  FOUNDATIONS  —  0–3 MONTHS</textPath></text>
<circle cx="2000" cy="2050" r="594" fill="none" stroke="#0f172a" stroke-width="22" opacity="0.9"/>
<path id="pb1" d="M1406,2050 A594,594,0,0,1,2594,2050" fill="none"/>
<text class="m" font-size="11" font-weight="700" fill="#e2e8f0" letter-spacing="2"><textPath href="#pb1" startOffset="50%" text-anchor="middle">PHASE 2  —  CORE SKILLS  —  3–6 MONTHS</textPath></text>
<path id="pt1" d="M1406,2050 A594,594,0,0,0,2594,2050" fill="none"/>
<text class="m" font-size="11" font-weight="700" fill="#e2e8f0" letter-spacing="2"><textPath href="#pt1" startOffset="50%" text-anchor="middle">PHASE 2  —  CORE SKILLS  —  3–6 MONTHS</textPath></text>
<circle cx="2000" cy="2050" r="974" fill="none" stroke="#0f172a" stroke-width="22" opacity="0.9"/>
<path id="pb2" d="M1026,2050 A974,974,0,0,1,2974,2050" fill="none"/>
<text class="m" font-size="12.5" font-weight="700" fill="#e2e8f0" letter-spacing="2"><textPath href="#pb2" startOffset="50%" text-anchor="middle">PHASE 3  —  APPLIED PRACTICE  —  6–12 MONTHS</textPath></text>
<path id="pt2" d="M1026,2050 A974,974,0,0,0,2974,2050" fill="none"/>
<text class="m" font-size="12.5" font-weight="700" fill="#e2e8f0" letter-spacing="2"><textPath href="#pt2" startOffset="50%" text-anchor="middle">PHASE 3  —  APPLIED PRACTICE  —  6–12 MONTHS</textPath></text>
<circle cx="2000" cy="2050" r="1354" fill="none" stroke="#0f172a" stroke-width="22" opacity="0.9"/>
<path id="pb3" d="M646,2050 A1354,1354,0,0,1,3354,2050" fill="none"/>
<text class="m" font-size="13.5" font-weight="700" fill="#e2e8f0" letter-spacing="2"><textPath href="#pb3" startOffset="50%" text-anchor="middle">PHASE 4  —  SPECIALIZATION  —  12+ MONTHS</textPath></text>
<path id="pt3" d="M646,2050 A1354,1354,0,0,0,3354,2050" fill="none"/>
<text class="m" font-size="13.5" font-weight="700" fill="#e2e8f0" letter-spacing="2"><textPath href="#pt3" startOffset="50%" text-anchor="middle">PHASE 4  —  SPECIALIZATION  —  12+ MONTHS</textPath></text>
<path d="M2060,331A1720,1720,0,0,1,3518.7,2857.5L3207.9,2692.2A1368,1368,0,0,0,2047.7,682.8Z" fill="#1e40af" stroke="#1e3a8a" stroke-width="2"/>
<text x="3337.1" y="1241.5" text-anchor="middle" dominant-baseline="central" class="t" font-size="17" font-weight="700" fill="#ffffff">Distributed Training</text>
<text x="3337.1" y="1264.5" text-anchor="middle" dominant-baseline="central" class="t" font-size="12.5" font-weight="500" fill="#93c5fd">GPU Architecture &amp; Hardware · Data Parallelism (FSDP/ZeRO) · Tensor &amp; Pipeline Parallelism · Scaling Laws · Training Frameworks</text>
<text x="3337.1" y="1297.5" text-anchor="middle" dominant-baseline="central" class="t" font-size="17" font-weight="700" fill="#ffffff">Research Methodology</text>
<text x="3337.1" y="1320.5" text-anchor="middle" dominant-baseline="central" class="t" font-size="12.5" font-weight="500" fill="#93c5fd">Paper Reading &amp; Reproduction · Experiment Design · LLM Benchmarking · Experiment Tracking</text>
<path d="M3458.6,2961.5A1720,1720,0,0,1,541.4,2961.5L839.9,2774.9A1368,1368,0,0,0,3160.1,2774.9Z" fill="#5b21b6" stroke="#4c1d95" stroke-width="2"/>
<text x="2000" y="3557.5" text-anchor="middle" dominant-baseline="central" class="t" font-size="17" font-weight="700" fill="#ffffff">Enterprise AI Systems</text>
<text x="2000" y="3580.5" text-anchor="middle" dominant-baseline="central" class="t" font-size="12.5" font-weight="500" fill="#c4b5fd">Multi-Agent Production · Scale &amp; Performance · Cost Optimization · Multi-Tenancy &amp; Compliance</text>
<text x="2000" y="3613.5" text-anchor="middle" dominant-baseline="central" class="t" font-size="17" font-weight="700" fill="#ffffff">Cloud &amp; Deployment</text>
<text x="2000" y="3636.5" text-anchor="middle" dominant-baseline="central" class="t" font-size="12.5" font-weight="500" fill="#c4b5fd">Cloud ML Platforms · Model Serving (vLLM/TGI) · Auto-Scaling &amp; Ops · Edge &amp; Hybrid Deploy</text>
<path d="M481.3,2857.5A1720,1720,0,0,1,1940,331L1952.3,682.8A1368,1368,0,0,0,792.1,2692.2Z" fill="#92400e" stroke="#78350f" stroke-width="2"/>
<text x="662.9" y="1241.5" text-anchor="middle" dominant-baseline="central" class="t" font-size="17" font-weight="700" fill="#ffffff">Inference at Scale</text>
<text x="662.9" y="1264.5" text-anchor="middle" dominant-baseline="central" class="t" font-size="12.5" font-weight="500" fill="#fde68a">Custom Inference Arch · Model Routing &amp; Cascading · Multi-Model Serving · Multi-Tenant Platforms · Edge &amp; Serverless</text>
<text x="662.9" y="1297.5" text-anchor="middle" dominant-baseline="central" class="t" font-size="17" font-weight="700" fill="#ffffff">Cost Engineering &amp; FinOps</text>
<text x="662.9" y="1320.5" text-anchor="middle" dominant-baseline="central" class="t" font-size="12.5" font-weight="500" fill="#fde68a">Cost Attribution · GPU Right-Sizing · Spot Instance Mgmt · Model Selection Economics · Reserved Capacity</text>
<path d="M2046.8,710.8A1340,1340,0,0,1,3183.1,2679.1L2872.4,2513.8A988,988,0,0,0,2034.5,1062.6Z" fill="#2563eb" stroke="#1d4ed8" stroke-width="2"/>
<text x="3008.1" y="1433" text-anchor="middle" dominant-baseline="central" class="t" font-size="16" font-weight="700" fill="#ffffff">Training at Scale</text>
<text x="3008.1" y="1455" text-anchor="middle" dominant-baseline="central" class="t" font-size="12" font-weight="500" fill="#93c5fd">Pretraining · Fine-Tuning &amp; LoRA/QLoRA · Alignment (RLHF/DPO) · Mixed Precision &amp; Memory</text>
<text x="3008.1" y="1487" text-anchor="middle" dominant-baseline="central" class="t" font-size="16" font-weight="700" fill="#ffffff">Data Engineering for AI</text>
<text x="3008.1" y="1509" text-anchor="middle" dominant-baseline="central" class="t" font-size="12" font-weight="500" fill="#93c5fd">Collection &amp; Cleaning · Labeling &amp; Annotation · Synthetic Data · Dataset Versioning</text>
<path d="M3136.4,2760.1A1340,1340,0,0,1,863.6,2760.1L1162.1,2573.6A988,988,0,0,0,2837.9,2573.6Z" fill="#7c3aed" stroke="#6d28d9" stroke-width="2"/>
<text x="2000" y="3179" text-anchor="middle" dominant-baseline="central" class="t" font-size="16" font-weight="700" fill="#ffffff">Prompt &amp; Context Eng</text>
<text x="2000" y="3201" text-anchor="middle" dominant-baseline="central" class="t" font-size="12" font-weight="500" fill="#c4b5fd">Advanced Prompting · Context Window Mgmt · Guardrails &amp; Safety · Probabilistic System Design</text>
<text x="2000" y="3233" text-anchor="middle" dominant-baseline="central" class="t" font-size="16" font-weight="700" fill="#ffffff">Eval &amp; Observability</text>
<text x="2000" y="3255" text-anchor="middle" dominant-baseline="central" class="t" font-size="12" font-weight="500" fill="#c4b5fd">LLM-as-Judge · Tracing &amp; Monitoring · A/B Testing for AI · Red-Teaming &amp; Safety</text>
<path d="M816.9,2679.1A1340,1340,0,0,1,1953.2,710.8L1965.5,1062.6A988,988,0,0,0,1127.6,2513.8Z" fill="#d97706" stroke="#b45309" stroke-width="2"/>
<text x="991.9" y="1379" text-anchor="middle" dominant-baseline="central" class="t" font-size="16" font-weight="700" fill="#ffffff">Performance Engineering</text>
<text x="991.9" y="1401" text-anchor="middle" dominant-baseline="central" class="t" font-size="12" font-weight="500" fill="#fde68a">Caching &amp; KV Cache · Quantization (INT4/INT8) · Continuous Batching · Model Compilation · Speculative Decoding</text>
<text x="991.9" y="1433" text-anchor="middle" dominant-baseline="central" class="t" font-size="16" font-weight="700" fill="#ffffff">Reliability Engineering</text>
<text x="991.9" y="1455" text-anchor="middle" dominant-baseline="central" class="t" font-size="12" font-weight="500" fill="#fde68a">Rate Limiting · Autoscaling for GPUs · Health Checks · Blue-Green Deploy · SLAs &amp; Error Budgets</text>
<text x="991.9" y="1487" text-anchor="middle" dominant-baseline="central" class="t" font-size="16" font-weight="700" fill="#ffffff">GPU &amp; Hardware</text>
<text x="991.9" y="1509" text-anchor="middle" dominant-baseline="central" class="t" font-size="12" font-weight="500" fill="#fde68a">GPU Architecture · DCGM Monitoring · Multi-GPU Topology · MIG Partitioning · Alt Accelerators</text>
<text x="991.9" y="1541" text-anchor="middle" dominant-baseline="central" class="t" font-size="16" font-weight="700" fill="#ffffff">Security &amp; Compliance</text>
<text x="991.9" y="1563" text-anchor="middle" dominant-baseline="central" class="t" font-size="12" font-weight="500" fill="#fde68a">Model Security · PII &amp; Privacy · Prompt Injection Defense · Supply Chain · SOC2/HIPAA/GDPR</text>
<path d="M2033.5,1090.6A960,960,0,0,1,2847.6,2500.7L2536.8,2335.4A608,608,0,0,0,2021.2,1442.4Z" fill="#bfdbfe" stroke="#93c5fd" stroke-width="2"/>
<text x="2679" y="1624" text-anchor="middle" dominant-baseline="central" class="t" font-size="15" font-weight="700" fill="#1e3a8a">Deep Learning</text>
<text x="2679" y="1645" text-anchor="middle" dominant-baseline="central" class="t" font-size="11.5" font-weight="500" fill="#2563eb">Neural Net Building Blocks · Training Mechanics · Regularization &amp; Normalization · CNNs &amp; Vision · Generative Models</text>
<text x="2679" y="1676" text-anchor="middle" dominant-baseline="central" class="t" font-size="15" font-weight="700" fill="#1e3a8a">Transformers &amp; LLMs</text>
<text x="2679" y="1697" text-anchor="middle" dominant-baseline="central" class="t" font-size="11.5" font-weight="500" fill="#2563eb">Tokenization · Attention Mechanisms · Positional Encoding · Architecture Design · Emerging Architectures</text>
<path d="M2814.1,2558.7A960,960,0,0,1,1185.9,2558.7L1484.4,2372.2A608,608,0,0,0,2515.6,2372.2Z" fill="#ddd6fe" stroke="#c4b5fd" stroke-width="2"/>
<text x="2000" y="2800" text-anchor="middle" dominant-baseline="central" class="t" font-size="15" font-weight="700" fill="#4c1d95">RAG Systems</text>
<text x="2000" y="2821" text-anchor="middle" dominant-baseline="central" class="t" font-size="11.5" font-weight="500" fill="#6d28d9">Document Processing · Chunking &amp; Embeddings · Vector Databases · Retrieval &amp; Ranking · Advanced RAG Patterns</text>
<text x="2000" y="2852" text-anchor="middle" dominant-baseline="central" class="t" font-size="15" font-weight="700" fill="#4c1d95">Agents &amp; Orchestration</text>
<text x="2000" y="2873" text-anchor="middle" dominant-baseline="central" class="t" font-size="11.5" font-weight="500" fill="#6d28d9">Tool &amp; Function Calling · Agent Architectures · Memory &amp; State · Multi-Agent Systems · Agent Safety</text>
<path d="M1152.4,2500.7A960,960,0,0,1,1966.5,1090.6L1978.8,1442.4A608,608,0,0,0,1463.2,2335.4Z" fill="#fde68a" stroke="#fcd34d" stroke-width="2"/>
<text x="1321" y="1598" text-anchor="middle" dominant-baseline="central" class="t" font-size="15" font-weight="700" fill="#78350f">MLOps &amp; Lifecycle</text>
<text x="1321" y="1619" text-anchor="middle" dominant-baseline="central" class="t" font-size="11.5" font-weight="500" fill="#a16207">Experiment Tracking · Model Registry · Data Versioning · CI/CD for ML · Pipeline Orchestration</text>
<text x="1321" y="1650" text-anchor="middle" dominant-baseline="central" class="t" font-size="15" font-weight="700" fill="#78350f">Monitoring &amp; Observability</text>
<text x="1321" y="1671" text-anchor="middle" dominant-baseline="central" class="t" font-size="11.5" font-weight="500" fill="#a16207">Drift Detection · GPU Metrics · Logging &amp; Alerting · Distributed Tracing · A/B Testing</text>
<text x="1321" y="1702" text-anchor="middle" dominant-baseline="central" class="t" font-size="15" font-weight="700" fill="#78350f">Data Infrastructure</text>
<text x="1321" y="1723" text-anchor="middle" dominant-baseline="central" class="t" font-size="11.5" font-weight="500" fill="#a16207">Data Lakes · Streaming Pipelines · Feature Stores · Vector DBs at Scale · Data Quality</text>
<path d="M2020.2,1470.4A580,580,0,0,1,2512.1,2322.3L2128,2118.1A145,145,0,0,0,2005.1,1905.1Z" fill="#dbeafe" stroke="#93c5fd" stroke-width="2"/>
<text x="2313.9" y="1821.8" text-anchor="middle" dominant-baseline="central" class="t" font-size="14" font-weight="700" fill="#1e3a8a">Mathematics for AI</text>
<text x="2313.9" y="1841.8" text-anchor="middle" dominant-baseline="central" class="t" font-size="10.5" font-weight="500" fill="#3b82f6">Linear Algebra · Calculus &amp; AutoDiff · Probability &amp; Stats · Optimization</text>
<text x="2313.9" y="1856.8" text-anchor="middle" dominant-baseline="central" class="t" font-size="10.5" font-weight="500" fill="#3b82f6">Information Theory</text>
<text x="2313.9" y="1885.8" text-anchor="middle" dominant-baseline="central" class="t" font-size="14" font-weight="700" fill="#1e3a8a">Core Machine Learning</text>
<text x="2313.9" y="1905.8" text-anchor="middle" dominant-baseline="central" class="t" font-size="10.5" font-weight="500" fill="#3b82f6">Learning Paradigms · Classical Models · Evaluation &amp; Validation</text>
<text x="2313.9" y="1920.8" text-anchor="middle" dominant-baseline="central" class="t" font-size="10.5" font-weight="500" fill="#3b82f6">Feature Engineering · Dim Reduction</text>
<path d="M2491.9,2357.4A580,580,0,0,1,1508.1,2357.4L1877,2126.8A145,145,0,0,0,2123,2126.8Z" fill="#ede9fe" stroke="#c4b5fd" stroke-width="2"/>
<text x="2000" y="2356" text-anchor="middle" dominant-baseline="central" class="t" font-size="14" font-weight="700" fill="#4c1d95">Python Engineering</text>
<text x="2000" y="2376" text-anchor="middle" dominant-baseline="central" class="t" font-size="10.5" font-weight="500" fill="#7c3aed">Core Language · Async &amp; Concurrency · Pydantic · Testing · Packaging · Logging</text>
<text x="2000" y="2405" text-anchor="middle" dominant-baseline="central" class="t" font-size="14" font-weight="700" fill="#4c1d95">APIs &amp; Backend</text>
<text x="2000" y="2425" text-anchor="middle" dominant-baseline="central" class="t" font-size="10.5" font-weight="500" fill="#7c3aed">FastAPI · Streaming (SSE/WS) · Auth &amp; RBAC · Databases · Message Queues</text>
<text x="2000" y="2454" text-anchor="middle" dominant-baseline="central" class="t" font-size="14" font-weight="700" fill="#4c1d95">LLM Fundamentals</text>
<text x="2000" y="2474" text-anchor="middle" dominant-baseline="central" class="t" font-size="10.5" font-weight="500" fill="#7c3aed">Prompt Engineering · API Integration · Failure Modes · Cost &amp; Latency</text>
<path d="M1487.9,2322.3A580,580,0,0,1,1979.8,1470.4L1994.9,1905.1A145,145,0,0,0,1872,2118.1Z" fill="#fef3c7" stroke="#fcd34d" stroke-width="2"/>
<text x="1686.1" y="1787.8" text-anchor="middle" dominant-baseline="central" class="t" font-size="14" font-weight="700" fill="#78350f">Linux &amp; Systems</text>
<text x="1686.1" y="1807.8" text-anchor="middle" dominant-baseline="central" class="t" font-size="10.5" font-weight="500" fill="#b45309">Process &amp; Memory · File Systems · Shell Scripting · Kernel Tuning · Logs</text>
<text x="1686.1" y="1836.8" text-anchor="middle" dominant-baseline="central" class="t" font-size="14" font-weight="700" fill="#78350f">Networking</text>
<text x="1686.1" y="1856.8" text-anchor="middle" dominant-baseline="central" class="t" font-size="10.5" font-weight="500" fill="#b45309">TCP/IP &amp; HTTP · gRPC · DNS &amp; Load Balancing · VPCs &amp; SDN · RDMA</text>
<text x="1686.1" y="1885.8" text-anchor="middle" dominant-baseline="central" class="t" font-size="14" font-weight="700" fill="#78350f">Containers &amp; K8s</text>
<text x="1686.1" y="1905.8" text-anchor="middle" dominant-baseline="central" class="t" font-size="10.5" font-weight="500" fill="#b45309">Docker · NVIDIA Toolkit · Security · K8s Architecture · GPU Scheduling</text>
<text x="1686.1" y="1934.8" text-anchor="middle" dominant-baseline="central" class="t" font-size="14" font-weight="700" fill="#78350f">Cloud Fundamentals</text>
<text x="1686.1" y="1954.8" text-anchor="middle" dominant-baseline="central" class="t" font-size="10.5" font-weight="500" fill="#b45309">GPU Compute · Storage · IAM · Terraform · Cost Management</text>
<circle cx="2000" cy="2050" r="1724" fill="none" stroke="#94a3b8" stroke-width="2" opacity="0.3"/>
<circle cx="2000" cy="2050" r="125" fill="#0f172a"/>
<circle cx="2000" cy="2050" r="125" fill="none" stroke="#1e293b" stroke-width="3"/>
<text x="2000" y="2015" text-anchor="middle" class="t" font-size="24" font-weight="800" fill="#f8fafc">Tymon Global</text>
<text x="2000" y="2050" text-anchor="middle" class="t" font-size="24" font-weight="800" fill="#f8fafc">AI Tech Stack</text>
<line x1="1955" y1="2068" x2="2045" y2="2068" stroke="#334155" stroke-width="1"/>
<text x="2000" y="2090" text-anchor="middle" class="t" font-size="13" font-weight="500" fill="#94a3b8">3 Tracks · 4 Phases</text>
<text x="2000" y="2108" text-anchor="middle" class="t" font-size="11" fill="#64748b">Complete AI Career Roadmap</text>
<path id="tl0" d="M2061.4,291.1 A1760,1760,0,0,1,3554,2876.3" fill="none"/>
<text class="t" font-size="17" font-weight="700" fill="#2563eb" letter-spacing="2.5"><textPath href="#tl0" startOffset="50%" text-anchor="middle">🧠  AI/ML RESEARCH &AMP; MODEL DEVELOPMENT</textPath></text>
<path id="tl1" d="M507.4,2982.7 A1760,1760,0,0,0,3492.6,2982.7" fill="none"/>
<text class="t" font-size="17" font-weight="700" fill="#7c3aed" letter-spacing="2.5"><textPath href="#tl1" startOffset="50%" text-anchor="middle">⚡  APPLIED AI ENGINEERING</textPath></text>
<path id="tl2" d="M446,2876.3 A1760,1760,0,0,1,1938.6,291.1" fill="none"/>
<text class="t" font-size="17" font-weight="700" fill="#d97706" letter-spacing="2.5"><textPath href="#tl2" startOffset="50%" text-anchor="middle">🔧  AI SYSTEMS &AMP; INFRASTRUCTURE</textPath></text>
<rect x="350" y="4040" width="3300" height="110" rx="18" fill="#ffffff" stroke="#e2e8f0" stroke-width="1.5"/>
<rect x="430" y="4062" width="24" height="24" rx="6" fill="#2563eb"/>
<text x="466" y="4077" dominant-baseline="central" class="t" font-size="17" font-weight="600" fill="#334155">🧠 AI/ML Research &amp; Model Development</text>
<rect x="1480" y="4062" width="24" height="24" rx="6" fill="#7c3aed"/>
<text x="1516" y="4077" dominant-baseline="central" class="t" font-size="17" font-weight="600" fill="#334155">⚡ Applied AI Engineering</text>
<rect x="2530" y="4062" width="24" height="24" rx="6" fill="#d97706"/>
<text x="2566" y="4077" dominant-baseline="central" class="t" font-size="17" font-weight="600" fill="#334155">🔧 AI Systems &amp; Infrastructure</text>
<circle cx="442" cy="4118" r="12" fill="#0f172a"/>
<text x="442" y="4119" text-anchor="middle" dominant-baseline="central" class="m" font-size="11" font-weight="800" fill="#fff">1</text>
<text x="462" y="4119" dominant-baseline="central" class="t" font-size="15" fill="#475569">FOUNDATIONS (0–3 months)</text>
<circle cx="1192" cy="4118" r="12" fill="#0f172a"/>
<text x="1192" y="4119" text-anchor="middle" dominant-baseline="central" class="m" font-size="11" font-weight="800" fill="#fff">2</text>
<text x="1212" y="4119" dominant-baseline="central" class="t" font-size="15" fill="#475569">CORE SKILLS (3–6 months)</text>
<circle cx="1942" cy="4118" r="12" fill="#0f172a"/>
<text x="1942" y="4119" text-anchor="middle" dominant-baseline="central" class="m" font-size="11" font-weight="800" fill="#fff">3</text>
<text x="1962" y="4119" dominant-baseline="central" class="t" font-size="15" fill="#475569">APPLIED PRACTICE (6–12 months)</text>
<circle cx="2742" cy="4118" r="12" fill="#0f172a"/>
<text x="2742" y="4119" text-anchor="middle" dominant-baseline="central" class="m" font-size="11" font-weight="800" fill="#fff">4</text>
<text x="2762" y="4119" dominant-baseline="central" class="t" font-size="15" fill="#475569">SPECIALIZATION (12+ months)</text>
</svg>